<svg width="36" height="36" viewBox="0 0 36 36" fill="none" xmlns="http://www.w3.org/2000/svg">
<g clip-path="url(#clip0_7_52)">
<path d="M18 36C27.9411 36 36 27.9411 36 18C36 8.05887 27.9411 0 18 0C8.05887 0 0 8.05887 0 18C0 27.9411 8.05887 36 18 36Z" fill="#3727EB"/>
<path d="M18.1328 12.6932L18 12.6658L17.8672 12.6932L8.39391 14.6466L8.26175 14.6739L8.15103 14.751L4.22707 17.4825L3.45184 18.0222L4.22707 18.5618L8.15103 21.2933L8.26175 21.3704L8.39391 21.3977L17.8672 23.3511L18 23.3785L18.1328 23.3511L27.6061 21.3977L27.7382 21.3704L27.849 21.2933L31.773 18.5618L32.5482 18.0222L31.773 17.4825L27.849 14.751L27.7382 14.6739L27.6061 14.6466L18.1328 12.6932Z" fill="white"/>
<path d="M17.9589 12.9041L21.5913 14.4087L23.0959 18.0411L21.5913 21.6735L17.9589 23.1781L14.3265 21.6735L12.8219 18.0411L14.3265 14.4087L17.9589 12.9041Z" fill="black"/>
<path d="M17.6301 17.6301L21.2877 13.4794L23.137 14.0959V16.1507L17.6301 17.6301Z" fill="white"/>
<path fill-rule="evenodd" clip-rule="evenodd" d="M27.5166 13.8964L27.8242 14.1035L27.8244 14.1036L31.4609 16.55L33.6164 18.0001L31.4609 19.45L27.8244 21.8964L27.8242 21.8965L27.5166 22.1036L18 24L8.85071 22.1769L8.48336 22.1036L8.17557 21.8964L4.53909 19.45L2.38356 18.0001L4.53902 16.55L8.48335 13.8964L18 12L27.5166 13.8964ZM4.51689 18L8.97466 20.9989L18 22.7974L27.0253 20.9989L31.4831 18L27.0253 15.0011L18 13.2026L8.97466 15.0011L4.51689 18Z" fill="black"/>
</g>
<defs>
<clipPath id="clip0_7_52">
<rect width="36" height="36" fill="white"/>
</clipPath>
</defs>
</svg>
